<svg width="150" height="64" viewBox="0 0 150 64" fill="none" xmlns="http://www.w3.org/2000/svg">
<path d="M22.1656 62.0402C24.8621 62.0402 27.2351 61.3075 29.2844 59.842C31.3878 58.3764 32.4394 56.1782 32.4394 53.2471C32.4394 50.2618 31.3069 47.9821 29.0418 46.408C26.8306 44.834 23.6487 43.477 19.496 42.3372C15.3973 41.143 12.4041 40.1118 10.5165 39.2433C8.68287 38.3748 6.93011 37.235 5.25826 35.8238C1.91454 33.0013 0.242689 28.6319 0.242689 22.7155C0.242689 17.8847 1.94151 13.7324 5.33915 10.2586C8.79073 6.7848 13.4827 5.0479 19.4151 5.0479C22.2734 5.0479 25.2396 5.48212 28.3137 6.35057C31.4417 7.16475 33.3832 7.57184 34.1382 7.57184C34.8933 7.57184 35.5674 7.02906 36.1606 5.94349H37.0505L37.6168 22.3898H36.3224C33.7337 17.6676 31.0102 13.8953 28.1519 11.0728C25.3475 8.19604 22.2734 6.75766 18.9297 6.75766C15.6399 6.75766 13.0782 7.5447 11.2446 9.11878C9.41093 10.6386 8.49411 12.7012 8.49411 15.3065C8.49411 17.8576 9.57272 19.8388 11.73 21.25C13.9411 22.607 16.6377 23.7197 19.8196 24.5881C23.0015 25.4566 25.0778 26.0536 26.0486 26.3793C27.0733 26.705 28.3137 27.1663 29.7698 27.7634C31.2799 28.3062 32.4933 28.9033 33.4102 29.5546C34.3809 30.1517 35.3786 30.9387 36.4033 31.9157C37.4819 32.8384 38.3179 33.8697 38.9111 35.0096C40.3672 37.6149 41.0953 40.7088 41.0953 44.2912C41.0953 50.1533 39.2617 54.8755 35.5944 58.4579C31.981 61.986 27.2081 63.75 21.2757 63.75C18.2017 63.75 14.6692 63.3429 10.6783 62.5287C6.74136 61.7146 4.55716 61.3075 4.12571 61.3075C3.37068 61.3075 2.64261 62.1216 1.94151 63.75H0.808963L0 44.3726H1.37524C3.74819 49.0948 6.76832 53.22 10.4356 56.7481C14.1568 60.2762 18.0668 62.0402 22.1656 62.0402Z" fill="white"/>
<path d="M42.7625 1.87261H62.2585V31.6715C63.1214 29.1747 64.4427 27.1663 66.2224 25.6466C68.0022 24.1268 70.6987 23.3669 74.3121 23.3669C82.6713 23.3669 86.851 27.8991 86.851 36.9636V61.4703H91.3812V62.9358H68.4875V61.4703H71.8043V35.0096C71.8043 31.7529 71.5886 29.6632 71.1571 28.7404C70.7257 27.7634 69.9437 27.2749 68.8111 27.2749C67.0853 27.2749 65.5483 28.4148 64.2 30.6944C62.9057 32.9741 62.2585 35.7423 62.2585 38.999V61.4703H65.7371V62.9358H42.7625V61.4703H47.2118V3.33812H42.7625V1.87261Z" fill="white"/>
<path d="M89.8612 1.87261H109.681V61.4703H114.211V62.9358H90.1848V61.4703H94.6341V3.33812H89.8612V1.87261Z" fill="white"/>
<path d="M137.866 1.3841C135.816 1.3841 134.468 2.17114 133.821 3.74521C133.174 5.26501 132.85 7.73467 132.85 11.1542V24.181H143.528V25.6466H132.85V61.4703H142.719V62.9358H113.354V61.4703H117.803V25.6466H113.111V24.181H117.803V23.8554C117.803 16.0393 119.286 10.1229 122.253 6.10633C125.219 2.03544 130.18 0 137.137 0C141.722 0 145.011 0.922734 147.007 2.7682C149.002 4.55939 150 6.64911 150 9.03736C150 11.4256 149.38 13.2168 148.139 14.4109C146.899 15.605 145.254 16.2021 143.205 16.2021C141.155 16.2021 139.564 15.6865 138.432 14.6552C137.353 13.5696 136.814 12.3483 136.814 10.9914C136.814 9.58014 136.976 8.22318 137.299 6.9205H140.373C141.452 3.22957 140.616 1.3841 137.866 1.3841Z" fill="white"/>
</svg>
